<?xml version="1.0" standalone="no"?>
<!DOCTYPE svg PUBLIC "-//W3C//DTD SVG 20010904//EN"
 "http://www.w3.org/TR/2001/REC-SVG-20010904/DTD/svg10.dtd">
<svg version="1.0" xmlns="http://www.w3.org/2000/svg"
 width="927.000000pt" height="927.000000pt" viewBox="0 0 927.000000 927.000000"
 preserveAspectRatio="xMidYMid meet">
<metadata>
Created by potrace 1.11, written by Peter Selinger 2001-2013
</metadata>
<g transform="translate(0.000000,927.000000) scale(0.100000,-0.100000)"
fill="#000000" stroke="none">
<path d="M7697 9259 c-412 -34 -899 -189 -1452 -464 -345 -171 -558 -303 -900
-560 -357 -269 -607 -487 -836 -730 -610 -648 -885 -1271 -735 -1669 31 -81
45 -103 364 -576 216 -319 289 -419 344 -473 573 -551 2341 46 3683 1243 218
194 484 480 647 696 217 286 391 640 433 882 32 181 11 358 -55 480 -16 31
-30 59 -30 64 0 5 -111 171 -247 368 -137 198 -257 373 -268 390 -137 212
-338 321 -650 350 -121 11 -154 11 -298 -1z m420 -255 c144 -29 258 -97 317
-186 109 -164 83 -416 -75 -733 -353 -707 -1277 -1523 -2309 -2038 -417 -209
-779 -336 -1135 -398 -181 -32 -463 -32 -576 -1 -160 43 -258 112 -309 216
-52 105 -60 193 -35 342 31 178 122 385 263 599 187 284 400 525 726 819 590
532 946 767 1586 1051 474 210 803 309 1150 345 112 11 301 4 397 -16z m670
-706 c11 -13 66 -91 122 -175 118 -174 141 -233 141 -351 0 -129 -52 -329 -93
-357 -26 -18 -96 -19 -118 -2 -9 7 -82 108 -162 226 -140 204 -147 217 -147
263 0 35 9 67 34 116 18 37 50 112 71 167 20 55 44 108 53 118 22 25 74 22 99
-5z m-173 -998 l138 -205 -4 -52 c-4 -40 -14 -65 -44 -109 -74 -108 -294 -374
-309 -374 -6 0 -340 490 -359 527 -21 42 -20 110 2 150 9 18 68 94 131 170 63
76 132 165 155 199 l40 61 56 -81 c31 -45 118 -173 194 -286z m-507 -722 c62
-91 66 -101 67 -155 1 -81 -27 -124 -148 -232 -124 -109 -222 -191 -229 -191
-5 0 -72 97 -290 418 -73 106 -77 116 -77 167 0 30 5 66 12 80 6 15 93 98 191
185 l180 159 114 -167 c63 -92 144 -211 180 -264z m-761 -355 c92 -131 174
-256 182 -278 26 -76 -4 -148 -91 -212 -61 -45 -301 -204 -336 -223 -22 -11
-27 -10 -43 10 -47 58 -321 466 -335 497 -30 73 6 153 95 207 31 19 122 80
201 135 80 56 148 101 152 101 4 0 83 -107 175 -237z m-733 -455 c84 -123 159
-233 165 -245 16 -30 15 -128 -2 -161 -27 -52 -72 -81 -256 -170 -102 -49
-192 -92 -201 -95 -13 -4 -54 51 -178 237 -89 133 -166 259 -172 279 -11 43 1
103 29 137 17 21 423 238 449 239 6 1 81 -99 166 -221z m-820 -350 c79 -117
151 -227 161 -245 39 -77 12 -179 -61 -229 -49 -33 -369 -113 -384 -96 -6 7
-213 304 -302 436 -36 52 -47 77 -47 107 0 64 27 84 179 129 101 31 290 97
308 109 1 0 67 -95 146 -211z m-787 -246 c85 -129 154 -243 154 -255 0 -33
-37 -86 -67 -98 -53 -20 -246 17 -342 65 -82 42 -119 82 -228 248 -116 177
-126 209 -76 248 25 19 36 21 103 16 41 -3 120 -2 175 3 55 4 106 8 113 7 7 0
83 -106 168 -234z"/>
<path d="M3075 4043 c-951 -50 -1677 -208 -2250 -488 -214 -104 -386 -218
-511 -338 -117 -111 -183 -196 -235 -302 -76 -157 -74 -127 -74 -895 l0 -685
23 -75 c45 -142 113 -251 236 -379 376 -388 1130 -685 2061 -811 1150 -155
2427 -37 3300 307 550 216 920 513 1034 830 50 136 54 208 48 885 -5 684 -4
674 -77 823 -183 379 -719 710 -1472 909 -396 105 -880 187 -1273 216 -126 9
-658 11 -810 3z m865 -267 c791 -86 1410 -240 1855 -462 433 -217 660 -477
642 -736 -19 -276 -324 -553 -847 -768 -620 -255 -1449 -383 -2370 -367 -441
8 -741 34 -1110 97 -883 152 -1556 467 -1770 830 -56 94 -74 166 -67 268 4 73
11 96 48 171 36 73 59 102 148 191 122 122 235 200 431 300 456 231 1009 371
1825 460 105 11 246 24 315 29 184 14 727 5 900 -13z m2465 -1871 l25 -24 0
-238 c0 -252 -6 -297 -50 -383 -39 -78 -106 -165 -183 -236 -135 -126 -184
-148 -242 -110 -53 35 -57 61 -53 380 3 276 4 293 25 331 28 53 62 83 161 139
45 27 117 75 159 107 87 67 119 74 158 34z m-5878 -78 c70 -46 149 -96 176
-111 l47 -28 0 -340 0 -340 -34 -34 c-29 -29 -41 -34 -79 -34 -40 0 -53 6
-104 48 -123 103 -209 220 -243 330 -18 56 -20 93 -20 302 l0 237 26 27 c48
47 84 38 231 -57z m5113 -663 c0 -252 -4 -379 -12 -406 -6 -22 -29 -58 -49
-82 -31 -35 -56 -50 -135 -80 -110 -42 -480 -146 -520 -146 -10 0 -3 723 7
767 17 67 70 117 144 138 179 49 371 108 455 139 52 19 98 35 103 35 4 1 7
-164 7 -365z m-4371 302 c55 -19 167 -54 250 -77 l151 -42 0 -331 c0 -324 -1
-332 -23 -371 -32 -57 -94 -97 -160 -103 -43 -3 -76 3 -174 36 -66 22 -157 57
-202 78 l-81 37 0 369 0 370 34 34 c44 44 77 44 205 0z m1061 -236 c69 -10
168 -21 220 -25 52 -3 105 -8 118 -11 l23 -5 -3 -352 -3 -352 -28 -48 c-15
-26 -47 -60 -69 -75 -40 -26 -47 -27 -147 -25 -65 1 -180 15 -296 35 l-190 33
-3 340 c-3 378 -1 393 62 454 43 42 100 63 151 55 22 -3 96 -14 165 -24z
m2320 -327 c0 -222 -4 -373 -11 -396 -12 -46 -67 -109 -113 -131 -27 -13 -486
-76 -551 -76 -13 0 -15 50 -15 358 0 201 4 372 10 392 13 46 61 103 103 123
18 9 123 28 233 42 109 14 222 29 249 34 28 5 60 9 73 10 l22 1 0 -357z m-950
-85 c0 -198 -4 -368 -10 -388 -13 -47 -63 -106 -111 -130 -35 -18 -59 -20
-302 -20 -146 0 -279 3 -296 6 l-31 6 0 355 c0 297 2 360 15 391 19 44 49 78
90 100 30 17 27 17 558 30 l87 2 0 -352z"/>
</g>
</svg>
