<svg xmlns="http://www.w3.org/2000/svg" height="512pt" viewBox="-43 0 512 512" width="512pt"><path d="M25.6 512h324.27a25.6 25.6 0 0025.6-25.6V85.33h34.13c9.43 0 17.07-7.64 17.07-17.06v-25.6A42.72 42.72 0 00384 0H25.6A25.6 25.6 0 000 25.6v460.8A25.6 25.6 0 0025.6 512zM384 17.07a25.6 25.6 0 0125.6 25.6v25.6H68.27v-25.6a42.22 42.22 0 00-8.76-25.6zM17.07 25.6a8.53 8.53 0 018.53-8.53 25.6 25.6 0 0125.6 25.6v25.6c0 9.42 7.64 17.06 17.07 17.06H358.4V486.4a8.53 8.53 0 01-8.53 8.53H25.6a8.53 8.53 0 01-8.53-8.53zm0 0"/><path d="M68.27 213.33h51.2c9.42 0 17.07-7.64 17.07-17.06v-8.54a8.54 8.54 0 00-17.08 0v8.54h-51.2v-51.2h25.6a8.53 8.53 0 000-17.07h-25.6a17.07 17.07 0 00-17.06 17.07v51.2c0 9.42 7.64 17.06 17.07 17.06zm0 0M68.27 332.8h51.2c9.42 0 17.07-7.64 17.07-17.07v-51.2c0-9.42-7.65-17.07-17.08-17.07h-51.2a17.07 17.07 0 00-17.06 17.08v51.2c0 9.42 7.64 17.06 17.07 17.06zm0-68.26h51.2v51.2h-51.2zm0 0M68.27 452.27h51.2c9.42 0 17.07-7.64 17.07-17.07V384c0-9.43-7.65-17.07-17.08-17.07h-51.2A17.07 17.07 0 0051.2 384v51.2c0 9.42 7.64 17.07 17.07 17.07zm0-68.27h51.2v51.2h-51.2zm0 0M170.67 162.13h42.66a8.53 8.53 0 100-17.06h-42.66a8.53 8.53 0 100 17.06zm0 0M247.46 162.13h85.34a8.53 8.53 0 000-17.06h-85.34a8.53 8.53 0 000 17.06zm0 0M170.67 196.27H256a8.54 8.54 0 000-17.07h-85.33a8.53 8.53 0 100 17.07zm0 0M332.8 179.2h-42.67a8.53 8.53 0 000 17.07h42.67a8.53 8.53 0 000-17.07zm0 0M170.67 281.6h42.66a8.53 8.53 0 100-17.06h-42.66a8.53 8.53 0 100 17.06zm0 0M332.8 264.54h-85.34a8.53 8.53 0 000 17.06h85.34a8.53 8.53 0 000-17.06zm0 0M170.67 315.73H256a8.54 8.54 0 000-17.06h-85.33a8.53 8.53 0 100 17.06zm0 0M332.8 298.67h-42.67a8.53 8.53 0 000 17.06h42.67a8.53 8.53 0 000-17.06zm0 0M170.67 401.07h42.66a8.53 8.53 0 100-17.07h-42.66a8.53 8.53 0 100 17.07zm0 0M332.8 384h-85.34a8.53 8.53 0 000 17.07h85.34a8.53 8.53 0 000-17.07zm0 0M170.67 435.2H256a8.54 8.54 0 000-17.07h-85.33a8.53 8.53 0 100 17.07zm0 0M332.8 418.13h-42.67a8.53 8.53 0 000 17.07h42.67a8.53 8.53 0 000-17.07zm0 0"/><path d="M91.37 156.1a8.54 8.54 0 00-12.07 12.07l17.07 17.06a8.54 8.54 0 006.03 2.5h.7a8.54 8.54 0 006.25-3.55L152 124.45A8.52 8.52 0 00145.9 111c-3.04-.3-6 1.05-7.77 3.54l-36.8 51.53zm0 0"/></svg>