<svg xmlns="http://www.w3.org/2000/svg" viewBox="0 0 512 512"><circle cx="299.9" cy="315.9" r="144.8" fill="#fff200"/><path d="M511 279.7c-4.6-46.2-25.3-89.8-58.2-122.7a200.7 200.7 0 00-98.8-54.2V77.3a34.1 34.1 0 0025.8-33c0-18.7-15.3-34-34-34h-72c-18.7 0-34 15.3-34 34 0 15.9 11 29.3 25.8 33v25.5c-36.1 8.1-70.4 26.1-98.5 54.2a205.9 205.9 0 00-17 19.3H78.2c-5.5 0-10 4.5-10 10s4.5 10 10 10h58.4c-7.3 12.3-13.2 25.2-17.7 38.4H10c-5.5 0-10 4.5-10 10s4.5 10 10 10h103.2c-2.9 12.7-4.5 25.5-5 38.4H64c-5.5 0-10 4.5-10 10s4.5 10 10 10h44.5c.8 12.9 2.9 25.8 6.2 38.4H50c-5.5 0-10 4.5-10 10s4.5 10 10 10h71.2c9.8 26 25.1 50.3 46 71.1a202.72 202.72 0 00142.7 59.2c39 0 77.5-11.3 110.2-32.6a10 10 0 002.9-13.8 10 10 0 00-13.8-2.9c-71.6 46.6-167.4 36.5-227.9-24-71-71-71-186.4 0-257.4s186.4-71 257.4 0c60.4 60.4 70.5 156.2 24.1 227.7-3 4.6-1.7 10.8 2.9 13.8s10.8 1.7 13.8-2.9c24.9-38.3 36-84.5 31.5-130zM259.9 44.3c0-7.7 6.3-14 14-14h72c7.7 0 14 6.3 14 14s-6.3 14-14 14h-72c-7.8 0-14-6.3-14-14zm25.7 55v-21H334v21c-16-2-32.3-1.9-48.4 0z"/><path d="M445.8 425.5c-2.6 0-5.2 1.1-7.1 2.9-1.9 1.9-2.9 4.4-2.9 7.1s1.1 5.2 2.9 7.1a9.9 9.9 0 007.1 2.9c2.6 0 5.2-1.1 7.1-2.9 1.9-1.9 2.9-4.4 2.9-7.1s-1.1-5.2-2.9-7.1c-1.9-1.8-4.5-2.9-7.1-2.9zM310 144.6c-85.5 0-155.1 69.6-155.1 155.1S224.5 454.9 310 454.9s155.1-69.6 155.1-155.1S395.5 144.6 310 144.6zm0 290.3c-74.5 0-135.1-60.6-135.1-135.1S235.5 164.6 310 164.6s135.1 60.6 135.1 135.1S384.5 434.9 310 434.9z"/><path d="M373.3 222.3l-49.5 49.5c-4.1-2-8.8-3.2-13.7-3.2-4.9 0-9.6 1.2-13.7 3.2l-22.2-22.2a9.96 9.96 0 10-14.1 14.1l22.2 22.2c-2 4.1-3.2 8.8-3.2 13.7 0 17.1 13.9 31.1 31.1 31.1 17.1 0 31.1-13.9 31.1-31.1 0-4.9-1.2-9.6-3.2-13.7l48.1-48.1 1.5-1.5c3.9-3.9 3.9-10.2 0-14.1s-10.5-3.8-14.4.1zM310 310.8c-6.1 0-11.1-5-11.1-11.1s5-11.1 11.1-11.1 11.1 5 11.1 11.1-5 11.1-11.1 11.1zM416.9 289.9h-9.3c-5.5 0-10 4.5-10 10s4.5 10 10 10h9.3c5.5 0 10-4.5 10-10 0-5.6-4.5-10-10-10zM212.3 289.6H203c-5.5 0-10 4.5-10 10s4.5 10 10 10h9.3c5.5 0 10-4.5 10-10s-4.4-10-10-10zM310.1 212.1c5.5 0 10-4.5 10-10v-9.3c0-5.5-4.5-10-10-10s-10 4.5-10 10v9.3c0 5.5 4.5 10 10 10zM309.9 387.4c-5.5 0-10 4.5-10 10v9.3c0 5.5 4.5 10 10 10s10-4.5 10-10v-9.3c0-5.5-4.5-10-10-10zM10 351.4c-2.6 0-5.2 1.1-7.1 2.9S0 358.8 0 361.4s1.1 5.2 2.9 7.1 4.4 2.9 7.1 2.9 5.2-1.1 7.1-2.9c1.9-1.9 2.9-4.4 2.9-7.1s-1.1-5.2-2.9-7.1c-1.9-1.8-4.5-2.9-7.1-2.9z"/></svg>