<svg xmlns="http://www.w3.org/2000/svg" id="Layer_1" x="0" y="0" viewBox="0 0 682 682" xml:space="preserve"><style>.st0{fill:#fff200}</style><path class="st0" d="M36 484.9c23.9-29.3 44.1-53.3 59-71 2.8-3.3 7.9-9.2 16-11 13.7-3.1 26.7 7.3 35 14 44.3 35.5 77.5 60.3 97 91 2.9 4.6 7.5 12.5 8 23 .2 3.5.1 12-6 24-7.5 14.8-34.4 55.4-65 64 0 0-98.7-59.3-144-134z"/><circle class="st0" cx="378.7" cy="188.2" r="110.7"/><path d="M658.1 314.4a47.5 47.5 0 00-47.2-33.3l-4.6.2c-13.4.5-26 6.1-35.5 15.5l-70.6 69.9a49.63 49.63 0 00-41.5-22.5h-99.6c-18.8 0-37.1-2.4-54.5-7.2-45.2-12.5-88.4-3.5-124.8 26.1a178.71 178.71 0 00-33.2 35.8c-7.7-5.3-16.8-8.1-26.3-8-12 .2-23.2 5.1-31.5 13.7l-64.4 66.9c-4.8 4.9-4.7 12.8.2 17.6l51.8 51.1a12.5 12.5 0 0017.7-.1 12.5 12.5 0 00-.1-17.7L51 480l55.8-58c3.7-3.8 8.6-6 13.9-6.1 5.3-.1 10.3 1.9 14.1 5.6l99.6 96.6c3.8 3.7 5.9 8.6 6 13.9.1 5.3-1.9 10.3-5.6 14.1l-54.9 56.3-13.9-13.3c-5-4.8-12.9-4.6-17.7.4-4.8 5-4.6 12.9.4 17.7l23.1 22c2.4 2.3 5.5 3.5 8.6 3.5 3.3 0 6.5-1.3 9-3.8l63.5-65.1c8.4-8.6 12.9-19.9 12.7-31.9-.1-5.5-1.1-10.8-3.1-15.8l22.4-2.6c10.4-1.2 20.9-1.8 31.4-1.8h151.6c2.3 0 4.7-.1 7-.3l14.5-1.2a83.9 83.9 0 0041.1-14.8c6-4.1 11.4-9 16.1-14.6l102.2-120.2a48.9 48.9 0 009.3-46.2zm-28.5 30L527.4 464.6a59.8 59.8 0 01-40.1 20.6l-14.5 1.2c-1.6.1-3.3.2-4.9.2H316.3c-11.4 0-22.9.7-34.3 2l-36.2 4.2-80.1-77.3c5.5-8.1 15.5-21.1 30-32.9C226 358 260.4 350.8 298 361.2c19.5 5.4 40.1 8.1 61.2 8.1h99.6a24.52 24.52 0 0124.1 19.7c0 1.1.1 2.3.4 3.4.3 5.9-1.4 11.9-5.3 16.7l-.4.5c-4.7 5.8-11.6 9.2-19.1 9.2h-86.8a12.5 12.5 0 000 25h86.8c15.1 0 29.2-6.8 38.6-18.5l.4-.5c7.2-9 10.8-19.9 10.9-30.8l80.3-79.4c5-5 11.7-8 18.8-8.2l4.6-.2c10.1-.4 19.2 6 22.2 15.7 2.4 7.8.6 16.2-4.7 22.5z"/><path d="M120.6 442.5c-18.7 0-33.9 15.2-33.9 33.9s15.2 33.9 33.9 33.9 33.9-15.2 33.9-33.9-15.2-33.9-33.9-33.9zm0 42.7c-4.9 0-8.9-4-8.9-8.9s4-8.9 8.9-8.9 8.9 4 8.9 8.9c-.1 5-4.1 8.9-8.9 8.9zM318.5 420.7l-.6.2a12.57 12.57 0 002.9 24.8c.9 0 1.9-.1 2.9-.3l.6-.1c6.7-1.6 10.9-8.3 9.3-15.1-1.6-6.9-8.4-11.1-15.1-9.5zM119 553.2l-.6.2a12.57 12.57 0 002.9 24.8c1 0 1.9-.1 2.9-.3l.6-.1c6.7-1.6 10.9-8.3 9.3-15.1-1.7-6.9-8.4-11-15.1-9.5zM387.5 312c73.1 0 132.5-59.5 132.5-132.5S460.6 46.9 387.5 46.9c-30 0-58.3 9.8-81.8 28.2-5.4 4.2-10.5 8.9-15.1 13.9-7 7.5-13.1 15.7-18.1 24.6-11.5 20-17.5 42.7-17.5 65.9 0 73 59.4 132.5 132.5 132.5zm-93.3-186c4.1-7.2 9.1-13.9 14.7-19.9 3.8-4.1 7.9-7.8 12.3-11.3 19.1-15 42-22.9 66.3-22.9 59.3 0 107.5 48.2 107.5 107.5s-48.2 107.5-107.5 107.5S280 238.7 280 179.4c0-18.8 4.9-37.2 14.2-53.4z"/><path d="M398.6 222.3c-5 3-11.6 4.1-16.1 4.1-8.4 0-15.8-10-15.8-21.3a12.5 12.5 0 00-25 0c0 21.7 13.2 39.9 31 45 .4 6.6 5.8 11.7 12.5 11.7 6.8 0 12.4-5.5 12.5-12.3 18.1-4.7 33.7-18.2 33.7-41.7 0-28.2-28.8-43.6-43.6-43.6-.2 0-18.6-1.6-18.6-13.4 0-18.1 18.4-18.6 18.6-18.6 3.5 0 7.7 2.1 11.1 5.4 1.6 1.6 1.8 1.8 1.8 8.5a12.5 12.5 0 0025 0c0-8 0-17.1-9.1-26.2-5.5-5.5-12-9.4-18.9-11.3a12.5 12.5 0 00-25 .7v.8c-13.7 5.1-28.5 17.2-28.5 40.6 0 28.7 29.8 38.4 43.5 38.4 3.8.3 18.7 6.9 18.7 18.6-.1 6.9-2.5 11.4-7.8 14.6z"/></svg>