<svg xmlns="http://www.w3.org/2000/svg" id="Layer_1" x="0" y="0" viewBox="0 0 512 512" xml:space="preserve"><style>.st0{fill:#fff200}</style><path class="st0" d="M113.8 420.3h109.8v70.5H113.8zM291 418.5h114v74H291zM155.9 77.2c.1-4.8 54.1-25.8 96.7-47.3 0 0 103.1 31.9 104.3 48.3 4.1 55.7 5.1 98.6-4.2 143.4-3.2 15.6-95.5 75.7-95.5 75.7s-92.2-61.6-98.9-78c-5-12.3-4.3-80.2-2.4-142.1z"/><g id="_x30_33---Insurance"><path id="Shape" d="M387.4 56.7l-128-56a8.9 8.9 0 00-6.8 0l-128 56a8.54 8.54 0 00-5.1 7.8v134c0 30.1 14.5 58.4 38.9 76l88.5 63.8c5.5 4 12.8 4 18.3 0l88.5-63.8a93.77 93.77 0 0038.9-76v-134c-.1-3.3-2.1-6.4-5.2-7.8zm-11.9 141.8c0 24.6-11.9 47.7-31.8 62.2L256 323.9l-87.6-63.2a76.53 76.53 0 01-31.8-62.2V70.1L256 17.9l119.5 52.3v128.3z"/><path id="Shape_1_" d="M252.6 38l-93.9 41.1a8.54 8.54 0 00-5.1 7.8v111.7c0 19.1 9.2 37.1 24.7 48.3l72.7 52.4c3 2.1 7 2.1 10 0l72.7-52.4a59.65 59.65 0 0024.7-48.3V86.9c0-3.4-2-6.5-5.1-7.8L259.4 38c-2.2-1-4.6-1-6.8 0zm88.7 54.5v106.1c0 13.7-6.6 26.5-17.7 34.5L256 281.8 188.3 233c-11.1-8-17.6-20.8-17.7-34.5v-106L256 55.1l85.3 37.4z"/><path id="Shape_2_" d="M70.7 283.3l-18.5-43.1a27.24 27.24 0 00-46.9-5.1c-5.8 7.9-6.9 18.2-2.9 27l33.4 73.6a90 90 0 0018.5 26.7l52.6 52.6c-3 3.1-4.6 7.3-4.6 11.6v68.3c0 9.4 7.6 17.1 17.1 17.1h93.9c9.4 0 17.1-7.6 17.1-17.1v-68.3c0-9.4-7.6-17.1-17.1-17.1v-15.9a89.1 89.1 0 00-18.7-55.9 61.11 61.11 0 00-28.4-20.7c-18-7.6-34.5-18.2-48.9-31.4a39.5 39.5 0 00-46.6-2.3zm142.6 211.6h-93.9v-68.3h93.9v68.3zm-32-146.4c9.9 13 15.2 28.9 15 45.2v15.9h-70.6l-59.2-59.2a74.26 74.26 0 01-15.1-21.7L18 255.1c-1.4-3.1-1.2-6.8.7-9.7 1.9-2.9 5.1-4.7 8.5-4.7a10 10 0 019.3 6.2l19.1 44.5c5.1 11.9 12.4 22.7 21.5 31.8l39 39a8.56 8.56 0 1012.1-12.1l-39-39c-3.9-3.9-7.4-8.2-10.5-12.8a22.1 22.1 0 0127.6.5c16 14.6 34.4 26.3 54.4 34.5 8.3 2.9 15.4 8.2 20.6 15.2z"/><path id="Shape_3_" d="M187.7 452.3h-8.5a8.5 8.5 0 100 17h8.5a8.5 8.5 0 100-17z"/><path id="Shape_4_" d="M476.1 335.7l33.4-73.6c4.1-8.9 3.1-19.4-2.7-27.3a27.22 27.22 0 00-47.1 5.3l-18.4 43a39.37 39.37 0 00-46.7 2.6 170.34 170.34 0 01-48.9 31.4 61.3 61.3 0 00-28.4 20.7 89.1 89.1 0 00-18.7 55.9v15.9c-9.4 0-17.1 7.6-17.1 17.1V495c0 9.4 7.6 17.1 17.1 17.1h93.9c9.4 0 17.1-7.6 17.1-17.1v-68.3c0-4.3-1.7-8.5-4.6-11.6l52.6-52.6c7.7-7.8 14-16.8 18.5-26.8zm-83.6 159.2h-93.9v-68.3h93.9v68.3zm-6.2-85.3h-70.6v-15.9c-.3-16.3 5-32.3 15-45.2 5.2-6.9 12.3-12.2 20.5-15.2a181.9 181.9 0 0054.5-34.5c8-6.6 19.5-6.8 27.7-.5-3.1 4.6-6.6 9-10.6 12.9l-39 39a8.6 8.6 0 00.1 12 8.6 8.6 0 0012 .1l39-39c9.1-9.1 16.5-19.9 21.5-31.8l19.1-44.5c1.6-3.7 5.3-6.1 9.3-6.1 3.4 0 6.7 1.8 8.5 4.7s2.1 6.6.7 9.7l-33.4 73.6c-3.7 8.1-8.8 15.5-15.1 21.7l-59.2 59z"/><path id="Shape_5_" d="M332.8 452.3h-8.5a8.5 8.5 0 100 17h8.5a8.5 8.5 0 100-17z"/><path id="Shape_6_" d="M209.9 180.9c-3.8-2.8-9.1-2.1-11.9 1.7s-2.1 9.1 1.7 11.9l34.1 25.6c1.5 1.1 3.3 1.7 5.1 1.7.5 0 1 0 1.4-.1 2.3-.4 4.4-1.7 5.7-3.7l68.3-102.4c1.7-2.5 1.9-5.8.6-8.5-1.4-2.7-4.1-4.5-7.1-4.7s-6 1.2-7.7 3.8l-63.3 94.9-26.9-20.2z"/></g></svg>