<svg xmlns="http://www.w3.org/2000/svg" id="Слой_1" x="0" y="0" viewBox="0 0 600 300" xml:space="preserve"><style>.st1{fill:#20aa4d}</style><path d="M567 282.4H32.8c-18.2 0-33-14.8-33-33v-198c0-18.2 14.8-33 33-33H567c18.2 0 33 14.8 33 33v198.1c0 18.2-14.8 32.9-33 32.9" fill="#fff"/><path class="st1" d="M326.5 98.3l-29.6 64.1h-3v-78h-42v132h35.7c9.4 0 17.9-5.4 21.8-13.9l29.6-64.1h3v78h42v-132h-35.7c-9.4 0-17.9 5.4-21.8 13.9M168.8 101.7l-17.5 60.7h-3l-17.5-60.7c-3-10.3-12.4-17.4-23.1-17.4h-42v132.1h42v-78h3l24 78h30l24-78h3v78h42v-132h-42c-10.5 0-19.9 7-22.9 17.3M401.9 144.4v72h41.9v-42H489c19.6 0 36.2-12.5 42.4-30H401.9z"/><linearGradient id="SVGID_1_" gradientUnits="userSpaceOnUse" x1="395.93" y1="111.38" x2="533.98" y2="111.38"><stop offset=".01" stop-color="#00a7e3"/><stop offset=".34" stop-color="#009edc"/><stop offset=".87" stop-color="#0085c9"/><stop offset="1" stop-color="#007ec4"/></linearGradient><path d="M489 84.4h-93c5.7 30.7 32.5 54 64.9 54h72.2a45 45 0 00-44.1-54" fill="url(#SVGID_1_)"/></svg>