<?xml version="1.0" encoding="UTF-8"?> <!-- Generator: Adobe Illustrator 21.1.0, SVG Export Plug-In . SVG Version: 6.00 Build 0) --> <svg xmlns="http://www.w3.org/2000/svg" xmlns:xlink="http://www.w3.org/1999/xlink" id="Layer_1" x="0px" y="0px" viewBox="0 0 165.3 157" style="enable-background:new 0 0 165.3 157;" xml:space="preserve"> <style type="text/css"> .st0{fill:#80C41C;} .st1{fill:#FAA919;} .st2{fill:#61930A;} .st3{fill:#FFFFFF;} .st4{fill:#FFF200;} </style> <g> <g> <path d="M2,109h7.2c1.6,0,2.9,0.1,3.7,0.4c1.1,0.3,2.1,0.9,3,1.8c0.8,0.9,1.4,1.9,1.9,3.2c0.4,1.3,0.6,2.8,0.6,4.6 c0,1.6-0.2,3-0.6,4.2c-0.5,1.4-1.2,2.6-2.1,3.5c-0.7,0.7-1.6,1.2-2.8,1.6c-0.9,0.3-2,0.4-3.5,0.4H2V109z M5.9,112.4v13h3 c1.1,0,1.9-0.1,2.4-0.2c0.6-0.2,1.2-0.4,1.6-0.8s0.8-1,1-1.9c0.3-0.9,0.4-2.1,0.4-3.6s-0.1-2.7-0.4-3.5c-0.3-0.8-0.6-1.4-1.1-1.9 c-0.5-0.5-1.1-0.8-1.8-0.9c-0.6-0.1-1.6-0.2-3.2-0.2H5.9z"></path> <path d="M29.9,124.1l3.7,0.6c-0.5,1.4-1.2,2.4-2.3,3.1s-2.3,1.1-3.9,1.1c-2.5,0-4.3-0.8-5.5-2.4c-0.9-1.3-1.4-2.9-1.4-4.9 c0-2.4,0.6-4.2,1.8-5.5c1.2-1.3,2.8-2,4.7-2c2.1,0,3.8,0.7,5,2.1c1.2,1.4,1.8,3.5,1.8,6.4h-9.4c0,1.1,0.3,2,0.9,2.6 s1.3,0.9,2.2,0.9c0.6,0,1.1-0.2,1.5-0.5C29.4,125.3,29.7,124.8,29.9,124.1z M30.2,120.3c0-1.1-0.3-1.9-0.8-2.5 c-0.5-0.6-1.2-0.8-2-0.8c-0.8,0-1.5,0.3-2,0.9c-0.5,0.6-0.8,1.4-0.8,2.4H30.2z"></path> <path d="M49.9,128.6h-3.8v-7.2c0-1.5-0.1-2.5-0.2-3c-0.2-0.5-0.4-0.8-0.8-1c-0.4-0.2-0.8-0.4-1.3-0.4c-0.7,0-1.2,0.2-1.8,0.5 s-0.9,0.8-1.1,1.4s-0.3,1.7-0.3,3.3v6.4h-3.8v-14.2h3.5v2.1c1.2-1.6,2.8-2.4,4.7-2.4c0.8,0,1.6,0.1,2.3,0.4 c0.7,0.3,1.2,0.7,1.6,1.1s0.6,1,0.7,1.6c0.1,0.6,0.2,1.4,0.2,2.5V128.6z"></path> <path d="M53.3,129.6l4.3,0.5c0.1,0.5,0.2,0.8,0.5,1c0.4,0.3,0.9,0.4,1.7,0.4c1,0,1.7-0.1,2.2-0.4c0.3-0.2,0.6-0.5,0.7-0.9 c0.1-0.3,0.2-0.9,0.2-1.7v-2.1c-1.1,1.5-2.5,2.3-4.2,2.3c-1.9,0-3.4-0.8-4.5-2.4c-0.9-1.3-1.3-2.9-1.3-4.8c0-2.4,0.6-4.2,1.7-5.5 c1.1-1.3,2.6-1.9,4.3-1.9c1.8,0,3.2,0.8,4.3,2.3v-2h3.5v12.7c0,1.7-0.1,2.9-0.4,3.8c-0.3,0.8-0.7,1.5-1.2,2 c-0.5,0.5-1.2,0.8-2,1.1s-1.9,0.4-3.2,0.4c-2.4,0-4.1-0.4-5.1-1.2s-1.5-1.9-1.5-3.1C53.3,129.9,53.3,129.7,53.3,129.6z M56.7,121.2c0,1.5,0.3,2.6,0.9,3.3c0.6,0.7,1.3,1,2.2,1c0.9,0,1.7-0.4,2.3-1.1c0.6-0.7,0.9-1.8,0.9-3.2c0-1.5-0.3-2.6-0.9-3.3 c-0.6-0.7-1.4-1.1-2.3-1.1c-0.9,0-1.6,0.3-2.2,1C57,118.7,56.7,119.8,56.7,121.2z"></path> <path d="M70.4,112.5V109h3.8v3.5H70.4z M70.4,128.6v-14.2h3.8v14.2H70.4z"></path> <path d="M98.5,128.6h-3.8v-7.2c0-1.5-0.1-2.5-0.2-3c-0.2-0.5-0.4-0.8-0.8-1c-0.4-0.2-0.8-0.4-1.3-0.4c-0.7,0-1.2,0.2-1.8,0.5 s-0.9,0.8-1.1,1.4s-0.3,1.7-0.3,3.3v6.4h-3.8v-14.2h3.5v2.1c1.2-1.6,2.8-2.4,4.7-2.4c0.8,0,1.6,0.1,2.3,0.4 c0.7,0.3,1.2,0.7,1.6,1.1s0.6,1,0.7,1.6c0.1,0.6,0.2,1.4,0.2,2.5V128.6z"></path> <path d="M105.1,118.8l-3.4-0.6c0.4-1.4,1-2.4,2-3s2.3-1,4.2-1c1.7,0,2.9,0.2,3.7,0.6c0.8,0.4,1.4,0.9,1.7,1.5s0.5,1.7,0.5,3.4 l0,4.4c0,1.2,0.1,2.2,0.2,2.8c0.1,0.6,0.3,1.2,0.7,1.9h-3.7c-0.1-0.2-0.2-0.6-0.4-1.1c-0.1-0.2-0.1-0.4-0.1-0.4 c-0.6,0.6-1.3,1.1-2.1,1.4c-0.7,0.3-1.5,0.5-2.3,0.5c-1.5,0-2.6-0.4-3.5-1.2s-1.3-1.8-1.3-3c0-0.8,0.2-1.5,0.6-2.1 c0.4-0.6,0.9-1.1,1.6-1.4s1.7-0.6,3-0.9c1.8-0.3,3-0.6,3.6-0.9V119c0-0.7-0.2-1.2-0.5-1.5c-0.4-0.3-1-0.5-2-0.5 c-0.7,0-1.2,0.1-1.6,0.4C105.6,117.6,105.3,118.1,105.1,118.8z M110.1,121.8c-0.5,0.2-1.2,0.4-2.3,0.6s-1.7,0.4-2,0.7 c-0.5,0.3-0.7,0.8-0.7,1.3c0,0.5,0.2,1,0.6,1.4s0.9,0.6,1.5,0.6c0.7,0,1.3-0.2,1.9-0.7c0.5-0.3,0.8-0.8,0.9-1.2 c0.1-0.3,0.1-0.9,0.1-1.8V121.8z"></path> <path d="M130.5,128.6h-3.5v-2.1c-0.6,0.8-1.3,1.4-2.1,1.8c-0.8,0.4-1.6,0.6-2.4,0.6c-1.6,0-3-0.7-4.2-2c-1.2-1.3-1.7-3.1-1.7-5.5 c0-2.4,0.6-4.2,1.7-5.5c1.1-1.3,2.6-1.9,4.3-1.9c1.6,0,3,0.7,4.1,2V109h3.8V128.6z M120.5,121.2c0,1.5,0.2,2.6,0.6,3.3 c0.6,1,1.5,1.5,2.5,1.5c0.9,0,1.6-0.4,2.2-1.1c0.6-0.7,0.9-1.8,0.9-3.3c0-1.6-0.3-2.8-0.9-3.5c-0.6-0.7-1.3-1.1-2.3-1.1 c-0.9,0-1.6,0.4-2.2,1.1C120.8,118.8,120.5,119.8,120.5,121.2z"></path> <path d="M133.4,121.3c0-1.2,0.3-2.5,0.9-3.6c0.6-1.2,1.5-2.1,2.6-2.7c1.1-0.6,2.4-0.9,3.8-0.9c2.1,0,3.9,0.7,5.3,2.1 c1.4,1.4,2.1,3.2,2.1,5.3c0,2.1-0.7,3.9-2.1,5.3c-1.4,1.4-3.1,2.1-5.2,2.1c-1.3,0-2.5-0.3-3.7-0.9c-1.2-0.6-2.1-1.4-2.7-2.6 C133.7,124.3,133.4,123,133.4,121.3z M137.2,121.5c0,1.4,0.3,2.5,1,3.2c0.7,0.7,1.5,1.1,2.5,1.1c1,0,1.8-0.4,2.5-1.1 c0.7-0.7,1-1.8,1-3.3c0-1.4-0.3-2.5-1-3.2c-0.7-0.7-1.5-1.1-2.5-1.1c-1,0-1.8,0.4-2.5,1.1C137.6,119.1,137.2,120.1,137.2,121.5z"></path> <path d="M159,123.6h-3.4c0-0.5,0-0.8,0-0.9c0-1.1,0.2-2,0.5-2.7c0.4-0.7,1.1-1.5,2.2-2.4c1.1-0.9,1.8-1.5,2-1.8 c0.3-0.4,0.5-0.9,0.5-1.4c0-0.7-0.3-1.4-0.9-1.9c-0.6-0.5-1.4-0.8-2.4-0.8c-1,0-1.8,0.3-2.4,0.8c-0.6,0.5-1.1,1.4-1.3,2.5 l-3.4-0.4c0.1-1.6,0.8-2.9,2-4.1c1.3-1.1,2.9-1.7,5-1.7c2.2,0,3.9,0.6,5.1,1.7c1.3,1.1,1.9,2.4,1.9,3.9c0,0.8-0.2,1.6-0.7,2.4 s-1.5,1.7-3,3c-0.8,0.7-1.3,1.2-1.5,1.6C159.1,121.8,159,122.5,159,123.6z M155.6,128.6v-3.8h3.8v3.8H155.6z"></path> </g> </g> <g> <g> <path d="M27.7,146.8c0.3,0.4,1,0.8,1.8,0.8c0.9,0,1.6-0.5,1.6-1.4c0-0.8-0.7-1.3-1.5-1.3h-0.9V144h0.8c0.8,0,1.4-0.5,1.4-1.3 c0-0.7-0.4-1.2-1.4-1.2c-0.7,0-1.2,0.3-1.2,0.8v0.3h-1v-0.6c0-1.1,1.4-1.5,2.4-1.5c1.6,0,2.4,0.9,2.4,2.1c0,1-0.6,1.5-1.1,1.8v0 c0.9,0.2,1.4,1,1.4,1.9c0,1.4-1.1,2.4-2.8,2.4c-1.2,0-2-0.5-2.5-1.1L27.7,146.8z"></path> <path d="M33.6,147.6h0.2c0.2,0,0.3,0,0.4-0.2l2.5-6.7h1.2l2.5,6.7c0.1,0.2,0.2,0.2,0.4,0.2h0.2v1h-0.6c-0.6,0-0.7-0.1-0.9-0.7 l-0.6-1.6h-2.9l-0.6,1.6c-0.2,0.5-0.4,0.7-0.9,0.7h-0.6V147.6z M38.4,145.3l-0.9-2.4c-0.1-0.4-0.3-1.1-0.3-1.1h0 c0,0-0.2,0.7-0.3,1.1l-0.9,2.4H38.4z"></path> <path d="M42.8,141.8c0-0.2-0.1-0.2-0.2-0.2h-0.5v-1h1.1c0.5,0,0.7,0.2,0.7,0.7v4.4c0,0.4-0.1,1.1-0.1,1.1h0c0,0,0.4-0.7,0.7-1.1 l3.5-5.1h1.1v6.7c0,0.2,0.1,0.2,0.2,0.2h0.5v1h-1.1c-0.5,0-0.7-0.2-0.7-0.7v-4.4c0-0.4,0.1-1.2,0.1-1.2h0c0,0-0.4,0.7-0.7,1.2 l-3.5,5.1h-1.1V141.8z M44.3,138.8v-0.2h0.9v0.2c0,0.5,0.4,0.7,0.8,0.7s0.8-0.2,0.8-0.8v-0.1h0.9v0.2c0,0.9-0.8,1.4-1.7,1.4 C45.1,140.2,44.3,139.7,44.3,138.8z"></path> <path d="M51.4,147.6h0.4c0.2,0,0.2-0.1,0.2-0.2l0.5-6.7h1.2l1.9,4.2c0.2,0.4,0.4,1,0.4,1h0c0,0,0.2-0.6,0.4-1l1.9-4.2h1.2l0.5,6.7 c0,0.2,0.1,0.2,0.2,0.2h0.4v1h-1c-0.5,0-0.7-0.2-0.7-0.7l-0.3-4.2c0-0.5,0-1.2,0-1.2h0c0,0-0.2,0.7-0.4,1.2l-1.6,3.5h-0.9 l-1.6-3.5c-0.2-0.4-0.4-1.2-0.4-1.2h0c0,0,0,0.7,0,1.2l-0.3,4.2c0,0.5-0.2,0.7-0.7,0.7h-1V147.6z"></path> <path d="M62.8,141.8c0-0.2-0.1-0.2-0.2-0.2H62v-1h1.1c0.5,0,0.7,0.2,0.7,0.7v2.3h1.5c1.4,0,2.5,0.8,2.5,2.4c0,1.7-1.2,2.5-2.7,2.5 h-1.7c-0.5,0-0.7-0.2-0.7-0.7V141.8z M64.1,147.6h1.2c0.9,0,1.5-0.6,1.5-1.5c0-1-0.6-1.5-1.5-1.5h-1.4v2.8 C63.9,147.5,64,147.6,64.1,147.6z M69,140.6h1.1v6.7c0,0.2,0.1,0.2,0.2,0.2h0.5v1h-1.1c-0.5,0-0.7-0.2-0.7-0.7V140.6z"></path> <path d="M80.5,140.4c2.3,0,4.1,1.8,4.1,4c0,2.3-1.8,4.2-4.1,4.2s-4.1-1.8-4.1-4.2C76.4,142.2,78.2,140.4,80.5,140.4z M80.5,147.6 c1.6,0,2.9-1.3,2.9-3.1c0-1.7-1.3-3-2.9-3s-2.9,1.3-2.9,3C77.6,146.3,78.8,147.6,80.5,147.6z"></path> <path d="M86.9,141.8c0-0.2-0.1-0.2-0.2-0.2h-0.5v-1h1.1c0.5,0,0.7,0.2,0.7,0.7v2.8h4v-2.8c0-0.5,0.2-0.7,0.7-0.7h1.1v1h-0.5 c-0.2,0-0.2,0.1-0.2,0.2v6.7H92V145h-4v3.5h-1.1V141.8z"></path> <path d="M95.2,147.6c1.3-0.2,1.8-1.9,1.8-5.1v-0.9h-0.7v-1h4.7c0.5,0,0.7,0.2,0.7,0.7v6c0,0.2,0.1,0.2,0.2,0.2h0.5v1h-1.1 c-0.5,0-0.7-0.2-0.7-0.7v-6c0-0.2-0.1-0.2-0.2-0.2h-2.2v0.9c0,3.8-0.7,6-2.9,6.1V147.6z"></path> <path d="M103.7,147.6h0.2c0.2,0,0.3,0,0.4-0.2l2.5-6.7h1.2l2.5,6.7c0.1,0.2,0.2,0.2,0.4,0.2h0.2v1h-0.6c-0.6,0-0.7-0.1-0.9-0.7 l-0.6-1.6h-2.9l-0.6,1.6c-0.2,0.5-0.4,0.7-0.9,0.7h-0.6V147.6z M108.5,145.3l-0.9-2.4c-0.1-0.4-0.3-1.1-0.3-1.1h0 c0,0-0.2,0.7-0.3,1.1l-0.9,2.4H108.5z"></path> <path d="M113,141.8c0-0.2-0.1-0.2-0.2-0.2h-0.5v-1h1.1c0.5,0,0.7,0.2,0.7,0.7v4.4c0,0.4-0.1,1.1-0.1,1.1h0c0,0,0.4-0.7,0.7-1.1 l3.5-5.1h1.1v6.7c0,0.2,0.1,0.2,0.2,0.2h0.5v1h-1.1c-0.5,0-0.7-0.2-0.7-0.7v-4.4c0-0.4,0.1-1.2,0.1-1.2h0c0,0-0.4,0.7-0.7,1.2 l-3.5,5.1H113V141.8z M114.4,138.8v-0.2h0.9v0.2c0,0.5,0.4,0.7,0.8,0.7s0.8-0.2,0.8-0.8v-0.1h0.9v0.2c0,0.9-0.8,1.4-1.7,1.4 C115.2,140.2,114.4,139.7,114.4,138.8z"></path> <path d="M122.4,141.8c0-0.2-0.1-0.2-0.2-0.2h-0.5v-1h1.1c0.5,0,0.7,0.2,0.7,0.7v2.8h4v-2.8c0-0.5,0.2-0.7,0.7-0.7h1.1v1h-0.5 c-0.2,0-0.2,0.1-0.2,0.2v6.7h-1.1V145h-4v3.5h-1.1V141.8z"></path> </g> </g> <ellipse class="st4" cx="75.9" cy="75.8" rx="32.2" ry="17"></ellipse> <path d="M109.3,80.8L109.3,80.8l0-10.3h-0.1c0-0.3,0.1-0.6,0.1-0.9c0-5.7-7.3-10.5-18.2-12.8c-9.6-2.1-15.5-1.8-23.6-1.1 c0,0,0,0,0,0c-14.6,1.6-25.1,7.1-25.1,13.9c0,0.1,0,0.2,0,0.3h0v11.8h0c0.6,7.8,15.1,13.9,33.4,13.9c18.8,0,33.5-6.3,33.5-14.4 C109.3,81,109.3,80.9,109.3,80.8z M66.1,58.5c9.8-1.4,15-1,24,0.7c10.3,2.1,16.6,6.3,16.6,10.4c0,5.7-12.4,11.7-30.8,11.7 S45,75.3,45,69.6C45,65,53.2,60.2,66.1,58.5z M49.9,85.1c0,1-1.2,1.6-2,0.9c-1.9-1.5-2.9-3.2-2.9-4.8c0-0.4,0-1.3,0-1.3v-2.4 c0-0.8,0.9-1.3,1.6-0.8c1,0.7,2.1,1.4,3.3,2.1V85.1z M56.4,90.2c-1.4-0.4-2.7-0.9-3.8-1.5v-6.9c0-0.8,0.8-1.4,1.6-1.1 c1.5,0.6,3.2,1,4.9,1.5v6C59.1,89.6,57.7,90.6,56.4,90.2z M66.9,92.4c-1.8-0.2-3.5-0.5-5.1-0.8v-6.5c0-1.2,1.1-2.2,2.3-2 c1.6,0.3,3.3,0.5,5.1,0.6v6.5C69.2,91.5,68.1,92.5,66.9,92.4z M79.3,90.8c0,1.1-0.9,2.1-2.1,2.1c-0.5,0-0.9,0-1.4,0 c-1.4,0-2.7,0-4-0.1V86c0-1.1,0.9-2,2.1-2c0.6,0,1.3,0,1.9,0c1.2,0,2.3,0,3.5-0.1V90.8z M87,92.1c-1.6,0.2-3.3,0.4-5.1,0.6v-7 c0-1,0.8-1.9,1.8-2c1.7-0.2,3.4-0.4,5.1-0.7V90C88.8,91,88.1,91.9,87,92.1z M97.3,89.5c-1.7,0.7-3.7,1.2-5.8,1.7V84 c0-0.9,0.6-1.7,1.5-1.9c2-0.5,3.9-1.1,5.7-1.8v7.3C98.6,88.4,98.1,89.2,97.3,89.5z M101.3,85.6l0-5.3c0-0.7,0.4-1.4,1-1.8 c1.1-0.6,2.2-1.3,3-2c0.5-0.4,1.3,0,1.3,0.6c0,1.3,0,2.7,0,2.7s0,0.8,0,1.3c0,1.8-1.3,3.7-3.6,5.4C102.3,87.1,101.3,86.5,101.3,85.6 z"></path> <ellipse transform="matrix(0.8252 -0.5649 0.5649 0.8252 3.6725 65.4836)" class="st4" cx="107.6" cy="26.8" rx="27.7" ry="14.7"></ellipse> <path d="M133.8,14.1L133.8,14.1l-5-7.3l-0.1,0c-0.1-0.2-0.2-0.5-0.4-0.7c-2.8-4-10.3-3.9-19.2-0.3c-7.8,3.2-11.9,6.3-17.3,10.7 c0,0,0,0,0,0c-9.6,8.2-14.4,17.3-11.1,22.1c0,0.1,0.1,0.1,0.1,0.2l0,0l5.7,8.4l0,0c4.2,5.3,17.4,2.5,30.5-6.4 c13.3-9.1,20.7-20.8,16.8-26.5C133.9,14.2,133.9,14.2,133.8,14.1z M92.3,19.3c6.3-5.7,10.1-8,17.4-11.1c8.3-3.5,14.9-3.6,16.9-0.7 c2.8,4-3.1,14.4-16.2,23.3s-24.8,10.7-27.6,6.7C80.5,34.1,83.9,26.7,92.3,19.3z M93.7,46c0.5,0.7-0.1,1.7-1,1.6 c-2.1-0.2-3.6-0.8-4.4-2c-0.2-0.3-0.6-0.9-0.6-0.9L86.6,43c-0.4-0.6,0-1.4,0.8-1.3c1,0.1,2.2,0,3.4-0.1L93.7,46z M100.8,46.5 c-1.2,0.4-2.3,0.6-3.4,0.8L94,42.4c-0.4-0.6-0.1-1.4,0.6-1.6c1.4-0.4,2.8-0.8,4.2-1.4l2.9,4.3C102.4,44.7,102,46.1,100.8,46.5z M109.3,42.9c-1.4,0.7-2.7,1.4-4,1.9l-3.1-4.6c-0.6-0.9-0.3-2.1,0.7-2.5c1.3-0.6,2.6-1.3,3.9-2l3.2,4.6 C110.5,41.2,110.2,42.4,109.3,42.9z M117.3,35.7c0.6,0.8,0.4,1.9-0.4,2.5c-0.3,0.2-0.6,0.5-1,0.7c-1,0.7-1.9,1.3-2.9,1.9l-3.3-4.8 c-0.6-0.8-0.3-1.9,0.5-2.4c0.5-0.3,0.9-0.6,1.4-0.9c0.8-0.6,1.6-1.1,2.4-1.7L117.3,35.7z M123.5,32.9c-1,1-2.1,1.9-3.3,2.9l-3.4-5 c-0.5-0.7-0.4-1.7,0.3-2.3c1.2-1,2.2-2,3.3-2.9l3.4,5C124.2,31.3,124.1,32.3,123.5,32.9z M129.5,26.1c-0.9,1.3-2,2.7-3.3,4.1 l-3.5-5.1c-0.4-0.7-0.4-1.5,0.1-2.1c1.2-1.4,2.3-2.7,3.1-4l3.5,5.2C129.9,24.7,129.9,25.5,129.5,26.1z M130.4,21.4l-2.6-3.8 c-0.4-0.5-0.4-1.2-0.1-1.7c0.5-1,0.9-2,1.2-2.9c0.2-0.6,0.9-0.7,1.3-0.2c0.6,0.9,1.3,1.9,1.3,1.9s0.4,0.6,0.6,0.9 c0.9,1.3,0.9,3.2,0,5.6C131.9,21.9,130.9,22,130.4,21.4z"></path> </svg> 