<svg xmlns="http://www.w3.org/2000/svg" id="Layer_1" x="0" y="0" viewBox="0 0 146.8 120.4" xml:space="preserve"><style>.st4{fill:#f79e1b}</style><g id="Layer_2"><g id="Layer_1-2"><path fill="none" d="M-16.7-13.7h180.1V134H-16.7z"/><path d="M27.9 115.5v-7.4c.2-2.4-1.6-4.5-4.1-4.7h-.6c-1.7-.1-3.2.7-4.1 2.1-.8-1.4-2.3-2.2-3.9-2.1-1.4-.1-2.7.6-3.4 1.7v-1.4H9.3v11.7h2.6V109c-.2-1.5.8-2.9 2.4-3.1h.5c1.7 0 2.6 1.1 2.6 3.1v6.5H20V109c-.2-1.5.9-2.9 2.4-3.1h.5c1.7 0 2.6 1.1 2.6 3.1v6.5h2.4zm38.2-11.7h-4.2v-3.6h-2.6v3.6H57v2.3h2.4v5.4c0 2.7 1.1 4.3 4.1 4.3 1.1 0 2.2-.3 3.2-.9l-.7-2.2c-.7.4-1.5.6-2.3.7-1.2 0-1.7-.8-1.7-2v-5.3h4.2l-.1-2.3zm21.7-.3c-1.3 0-2.5.6-3.1 1.7v-1.4h-2.5v11.7h2.6v-6.6c0-1.9.8-3 2.5-3 .5 0 1.1.1 1.6.3l.8-2.5c-.7-.2-1.3-.3-1.9-.2zm-32.9 1.2c-1.4-.9-3.1-1.3-4.8-1.2-3 0-4.9 1.4-4.9 3.8 0 1.9 1.4 3.1 4 3.5l1.2.2c1.4.2 2.1.6 2.1 1.2 0 .9-.9 1.4-2.7 1.4-1.4 0-2.8-.4-3.9-1.2l-1.2 2c1.5 1 3.3 1.6 5.1 1.5 3.4 0 5.3-1.6 5.3-3.8 0-2.2-1.5-3.1-4.1-3.5l-1.2-.2c-1.1-.1-2-.4-2-1.2s.8-1.4 2.2-1.4c1.3 0 2.6.4 3.7 1l1.2-2.1zm68.4-1.2c-1.3 0-2.5.6-3.1 1.7v-1.4h-2.5v11.7h2.6v-6.6c0-1.9.8-3 2.5-3 .5 0 1.1.1 1.6.3l.8-2.5c-.7-.2-1.4-.3-1.9-.2zm-32.9 6.1c-.1 3.3 2.4 6 5.7 6.1h.6c1.5.1 3-.4 4.2-1.4l-1.2-2.1c-.9.7-2 1-3.1 1.1-2.1-.2-3.6-2-3.5-4.1.1-1.8 1.6-3.3 3.5-3.5 1.1 0 2.2.4 3.1 1.1l1.2-2.1c-1.2-1-2.7-1.5-4.2-1.4-3.3-.2-6.1 2.3-6.3 5.6v.7zm23.9 0v-5.8h-2.6v1.4c-.9-1.1-2.2-1.8-3.7-1.7-3.4 0-6.1 2.7-6.1 6.1 0 3.4 2.7 6.1 6.1 6.1 1.4.1 2.8-.6 3.7-1.7v1.4h2.6v-5.8zm-9.5 0c.1-2 1.8-3.4 3.7-3.3a3.5 3.5 0 01-.2 7c-1.9 0-3.5-1.5-3.6-3.5.1 0 .1-.1.1-.2zM74 103.5c-3.4 0-6.1 2.8-6 6.2s2.8 6.1 6.2 6c1.8.1 3.5-.5 4.9-1.6l-1.2-1.9c-1 .8-2.2 1.2-3.4 1.2-1.8.2-3.3-1.1-3.5-2.9h8.7v-1c-.1-3.6-2.4-6-5.7-6zm0 2.2c1.6 0 2.9 1.2 3 2.8h-6.1c0-1.5 1.4-2.8 3.1-2.8zm63.9 3.9V99h-2.5v6.1c-.9-1.1-2.2-1.8-3.7-1.7-3.4 0-6.1 2.7-6.1 6.1 0 3.4 2.7 6.1 6.1 6.1 1.4.1 2.8-.6 3.7-1.7v1.4h2.5v-5.7zm4.3 4.2c.2 0 .3 0 .5.1.1.1.3.1.4.2.1.1.2.2.3.4.1.3.1.6 0 .9-.1.1-.1.3-.3.4-.1.1-.2.2-.4.2-.1.1-.3.1-.5.1-.5 0-.9-.3-1.1-.7-.1-.3-.1-.6 0-.9.1-.1.1-.3.3-.4.1-.1.2-.2.4-.2.1-.1.3-.1.4-.1zm0 2.1c.1 0 .2 0 .4-.1.1 0 .2-.1.3-.2.3-.3.3-.9 0-1.2-.1-.1-.2-.1-.3-.2-.1 0-.2-.1-.4-.1-.1 0-.2 0-.4.1-.1 0-.2.1-.3.2-.3.3-.3.9 0 1.2.1.1.2.2.3.2.2 0 .3.1.4.1zm.1-1.5c.1 0 .2 0 .3.1.1.1.1.2.1.3 0 .1 0 .2-.1.2-.1.1-.2.1-.3.1l.4.4h-.3l-.3-.4h-.1v.4h-.2v-1.1h.5zm-.3.2v.3h.4v-.1-.1h-.1l-.3-.1zm-13.5-5c.1-2 1.8-3.4 3.7-3.3a3.5 3.5 0 01-.2 7c-1.9 0-3.5-1.5-3.6-3.5.1 0 .1-.1.1-.2zm-86.2 0v-5.9h-2.6v1.4c-.9-1.1-2.2-1.8-3.7-1.7-3.4 0-6.1 2.7-6.1 6.1 0 3.4 2.7 6.1 6.1 6.1 1.4.1 2.8-.6 3.7-1.7v1.4h2.6v-5.7zm-9.5 0c.1-2 1.8-3.4 3.7-3.3a3.5 3.5 0 01-.2 7c-1.9 0-3.6-1.5-3.6-3.5.1 0 .1-.1.1-.2z" fill="#231f20"/><g id="_Group_"><path fill="#ff5f00" d="M54.1 14.4h38.7v69.5H54.1z"/><path id="_Path_" d="M56.5 49.1c0-13.6 6.2-26.4 16.9-34.7-19.2-15.1-47-11.7-62 7.4s-11.7 47 7.4 62c16 12.6 38.6 12.6 54.6 0a43.83 43.83 0 01-16.9-34.7z" fill="#eb001b"/><path class="st4" d="M144.9 49.1a44.21 44.21 0 01-71.5 34.8 44.1 44.1 0 000-69.4 44.1 44.1 0 0162 7.4c6.1 7.7 9.5 17.3 9.5 27.2zM140.7 76.5V75h.6v-.3h-1.5v.3h.6v1.4l.3.1zm2.8 0v-1.7h-.5l-.5 1.2-.5-1.2h-.4v1.7h.3v-1.3l.5 1.1h.3l.5-1.1v1.3h.3z"/></g></g></g></svg>