<svg xmlns="http://www.w3.org/2000/svg" viewBox="0 0 393.5 192.2"><path d="M260.8 55v66.4c0 1-.8 1.8-1.8 1.8h-13.6c-1 0-1.8-.8-1.8-1.8V55c0-1 .8-1.8 1.8-1.8H259c.9 0 1.8.9 1.8 1.8zm105.7-1.8h-15.2c-.8 0-1.5.5-1.7 1.3l-12 39.3-13.2-39.3c-.2-.7-.9-1.2-1.7-1.2h-10.6c-.8 0-1.5.5-1.7 1.2l-13.2 39.3-12-39.3c-.2-.8-.9-1.3-1.7-1.3h-15.2c-.6 0-1.1.3-1.5.7-.3.5-.4 1.1-.2 1.6l22.3 66.5c.2.7.9 1.2 1.7 1.2h12.1c.8 0 1.5-.5 1.7-1.2l13.1-38.8 13.1 38.8c.2.7.9 1.2 1.7 1.2h12.1c.8 0 1.5-.5 1.7-1.2l22.3-66.5c.2-.5.1-1.1-.2-1.6-.6-.4-1.1-.7-1.7-.7zm22.8 0h-13.6c-1 0-1.8.8-1.8 1.8v66.4c0 1 .8 1.8 1.8 1.8h13.6c1 0 1.8-.8 1.8-1.8V55c0-.9-.8-1.8-1.8-1.8zM235.7 121c.8.9.1 2.3-1.1 2.3H218c-.7 0-1.3-.3-1.8-.8l-2.8-3.4c-5.7 3.7-12.6 5.9-19.9 5.9-20.2 0-36.7-16.5-36.7-36.7s16.5-36.7 36.7-36.7c20.2 0 36.7 16.5 36.7 36.7 0 7.3-2.1 14.1-5.8 19.8l11.3 12.9zm-32.9-14.8l-7.3-8.8c-.8-.9-.1-2.3 1.1-2.3h15.2c.7-2.2 1.1-4.5 1.1-6.9 0-11-8.2-20.4-19.4-20.4s-19.4 9.5-19.4 20.4c0 11 8.2 20.3 19.4 20.3 3.5.1 6.6-.8 9.3-2.3zm-87.6 14.5c.4 2.8-.5 3.9-1.3 3.9-1 0-2.2-1.1-3.6-3.3-1.4-2.2-1.9-4.7-1.2-6 .5-.8 1.4-1.2 2.6-.7 2.3.8 3.2 4.4 3.5 6.1zm-13 6c2.8 2.4 3.7 5.2 2.2 7.2-.8 1.1-2.2 1.7-3.8 1.7-1.6 0-3.2-.6-4.3-1.6-2.6-2.2-3.3-5.9-1.6-7.9.7-.8 1.7-1.2 3-1.2a7 7 0 014.5 1.8zm-4.7 22.9c12.1 0 25.2 4.2 39.8 17 1.5 1.3 3.4-.3 2.1-1.9-14.3-18-27.5-21.5-40.7-24.4-16.1-3.6-24.4-12.6-30.2-22.6-1.2-2-1.7-1.6-1.8.9-.1 3.1.1 7.2.8 11.3h-2c-23.1 0-41.8-18.7-41.8-41.8s18.7-41.8 41.8-41.8A41.78 41.78 0 01107 93c-3.1-.5-9.1-.6-13.3-.2-1.6.1-1.4.9-.2 1.1 13.8 2.5 23.3 11.1 25.5 26.6 0 .4.5.5.7.2 5.7-9.5 8.9-20.6 8.9-32.4a63.2 63.2 0 10-63.2 63.2c9.4-.1 18.6-1.9 32.1-1.9z" fill="#ff8c00"/></svg>