<svg xmlns="http://www.w3.org/2000/svg" height="512pt" viewBox="-73 0 512 512.16" width="512pt"><path d="M1.78 232.43a26.72 26.72 0 007.73 29.76c16.3 16.3 49.8 75.14 66.37 116.6 11.32 28.29 36.17 56.05 55.02 74.36a42.36 42.36 0 0112.64 30.28v3.12a25.6 25.6 0 0025.6 25.6h136.54a25.6 25.6 0 0025.6-25.6v-26.21a7.83 7.83 0 012.27-5.8c31.5-28.81 31.86-76.89 31.86-78.92V240.53a35.04 35.04 0 00-31.65-35.49 34.12 34.12 0 00-19.55 4.65v-13.27a33.93 33.93 0 00-51.57-29.19 33.73 33.73 0 00-50.83-25.8V127.3a67.41 67.41 0 0034.14-58.88 68.27 68.27 0 00-136.54 0 67.41 67.41 0 0034.13 58.88V264.7a94.4 94.4 0 01-4.06 29.76 8.63 8.63 0 01-6.15 5.73 8.22 8.22 0 01-7.68-2.02A121.29 121.29 0 01108 277.02c-14.8-22.15-52.07-63.53-75.4-63.53a33.43 33.43 0 00-30.82 18.94zm124.7-164a51.2 51.2 0 11102.4 0 50.68 50.68 0 01-17.07 38.2v-38.2a34.13 34.13 0 10-68.27 0v38.2a50.7 50.7 0 01-17.06-38.2zm-32.7 218.06a138.65 138.65 0 0020.16 24.1 25.25 25.25 0 0023.54 6.14 25.72 25.72 0 0018.17-16.82c3.53-11.4 5.2-23.3 4.96-35.22V68.42a17.07 17.07 0 1134.13 0v179.2a8.53 8.53 0 1017.07 0v-76.8a17.07 17.07 0 0134.14 0v76.8a8.53 8.53 0 1017.06 0v-51.2a17.07 17.07 0 1134.13 0v59.74a8.53 8.53 0 0017.07 0v-17.07a16.92 16.92 0 015-12.06 17.27 17.27 0 0113.32-4.96 18.17 18.17 0 0115.81 18.46v135.1c0 .4-.43 42.66-26.31 66.32a24.9 24.9 0 00-7.82 18.39v26.21a8.53 8.53 0 01-8.53 8.54H169.14a8.53 8.53 0 01-8.53-8.54v-3.12c.01-16-6.41-31.32-17.82-42.53-14.46-14.03-40.32-41.6-51.05-68.45-17.56-43.88-52.31-104.48-70.16-122.33-4.06-4.06-5.42-7.82-4.04-11.16a16.83 16.83 0 0115.07-8.4c11.6 0 43.04 28.74 61.17 55.93zm0 0"/><path d="M322.74 367.09a8.53 8.53 0 008.54-8.54v-51.2a8.53 8.53 0 00-17.07 0v51.2a8.53 8.53 0 008.53 8.54zm0 0M314.21 418.29c2.26 0 4.43-.9 6.03-2.5 6.5-6 10.44-14.27 11.04-23.1-.01-4.61-3.72-8.36-8.33-8.41a8.58 8.58 0 00-8.74 8.21 18.77 18.77 0 01-6.03 11.23 8.54 8.54 0 006.03 14.57zm0 0M186.21 478.02h8.53a8.53 8.53 0 100-17.06h-8.53a8.53 8.53 0 100 17.06zm0 0M228.88 478.02h59.73a8.53 8.53 0 100-17.06h-59.74a8.53 8.53 0 000 17.06zm0 0M109.41 141.29a8.53 8.53 0 006.22-14.38 85.12 85.12 0 01-3.74-112.78A8.54 8.54 0 1098.74 3.24a102.2 102.2 0 004.45 135.35 8.54 8.54 0 006.22 2.69zm0 0M257.32 118.68a8.53 8.53 0 0011.48-3.7A102.05 102.05 0 00256.6 3.25a8.53 8.53 0 10-13.14 10.88 85 85 0 0110.16 93.07 8.53 8.53 0 003.7 11.48zm0 0"/></svg>