<svg xmlns="http://www.w3.org/2000/svg" id="svg2" x="0" y="0" viewBox="0 0 732 225" xml:space="preserve"><style>.st0{fill:#004686}</style><g id="g5088"><path id="polygon10" class="st0" d="M257.9 221.5l37-217.4h59.3l-37.1 217.4z"/><path id="path12" class="st0" d="M532.1 9.4C520.4 5 502 .3 479 .3c-58.6 0-99.8 29.5-100.2 71.8-.3 31.2 29.4 48.7 51.9 59.1 23.1 10.7 30.8 17.5 30.7 27-.1 14.6-18.4 21.2-35.5 21.2-23.7 0-36.3-3.3-55.8-11.4l-7.6-3.5-8.3 48.7c13.8 6.1 39.4 11.3 66 11.6 62.3 0 102.7-29.2 103.2-74.3.2-24.7-15.6-43.6-49.8-59.1-20.7-10.1-33.4-16.8-33.3-27 0-9 10.7-18.7 33.9-18.7 19.4-.3 33.4 3.9 44.4 8.3l5.3 2.5 8.2-47.1z"/><path id="path14" class="st0" d="M684 4.3h-45.8c-14.2 0-24.8 3.9-31 18l-88 199.3h62.2s10.2-26.8 12.5-32.7c6.8 0 67.3.1 75.9.1 1.8 7.6 7.2 32.6 7.2 32.6h55L684 4.3m-73.1 140.1c4.9-12.5 23.6-60.8 23.6-60.8-.3.6 4.9-12.6 7.9-20.8l4 18.7s11.3 51.9 13.7 62.8l-49.2.1z"/><path id="path16" class="st0" d="M208.2 4.2l-58 148.3-6.2-30.1C133.2 87.6 99.5 50 61.9 31.2L115 221.3l62.7-.1L271 4.2h-62.8z"/><path id="path18" d="M96.3 4.1H.8L0 8.6c74.3 18 123.5 61.5 144 113.7l-20.8-99.9c-3.6-13.7-14-17.8-26.9-18.3z" fill="#ef9b11"/></g></svg>