<svg xmlns="http://www.w3.org/2000/svg" viewBox="0 0 60 60"><path d="M5.5 12.42a1 1 0 10-.82-1.81c-.7.31-1.34.73-1.92 1.23a1 1 0 001.31 1.5c.43-.37.92-.68 1.44-.92zM9 11.88h2a1 1 0 100-2H9a1 1 0 100 2zM15 11.88h2a1 1 0 100-2h-2a1 1 0 100 2zM11 23.88H9a1 1 0 100 2h2a1 1 0 100-2zM23 23.88h-2a1 1 0 100 2h2a1 1 0 100-2zM17 23.88h-2a1 1 0 100 2h2a1 1 0 100-2zM5.5 23.34a6 6 0 01-1.43-.92 1 1 0 00-1.3 1.51 8 8 0 001.9 1.23 1 1 0 00.83-1.82zM29 23.88h-2a1 1 0 100 2h2a1 1 0 100-2zM47 23.88h-2a1 1 0 100 2h2a1 1 0 100-2zM53 23.88h-2a1 1 0 100 2h2a1 1 0 100-2zM35 23.88h-2a1 1 0 100 2h2a1 1 0 100-2zM41 23.88h-2a1 1 0 100 2h2a1 1 0 100-2zM5.5 53.34a6 6 0 01-1.43-.92 1 1 0 00-1.3 1.51 8 8 0 001.9 1.23 1 1 0 00.83-1.82zM17 53.88h-2a1 1 0 100 2h2a1 1 0 100-2zM11 53.88H9a1 1 0 100 2h2a1 1 0 100-2zM35 53.88h-2a1 1 0 100 2h2a1 1 0 100-2zM38 54.88a1 1 0 001 1h2a1 1 0 100-2h-2a1 1 0 00-1 1zM45 55.88h2a1 1 0 100-2h-2a1 1 0 100 2zM29 53.88h-2a1 1 0 100 2h2a1 1 0 100-2zM51 55.88h2a1 1 0 100-2h-2a1 1 0 100 2zM23 53.88h-2a1 1 0 100 2h2a1 1 0 100-2zM44 38.88a4 4 0 108 0 4 4 0 00-8 0zm4-2a2 2 0 110 4 2 2 0 010-4z"/><path d="M42.94 5.88L37.51.45a1.14 1.14 0 00-1.61 0l-2.05 2.04L31.8.45a1.14 1.14 0 00-1.6 0l-5.44 5.43H8a8 8 0 00-8 8v38.85c0 3.95 3.2 7.15 7.15 7.15H60v-54H42.94zm-6.24-3.4l3.41 3.4 14 14h-5.39L37.46 8.62a1.08 1.08 0 00-1.52 0L24.68 19.89H19.3L35.27 3.91l1.43-1.44zm9.2 17.4H27.5l9.2-9.19 9.2 9.2zM31 2.48l1.44 1.43-15.98 15.97H13.6l14-14L31 2.48zM8 7.87h14.76L20.7 9.95c-.3.1-.54.32-.63.63l-9.31 9.3H8a6 6 0 010-12zm50 36H47a5 5 0 010-10h11v10zm0-20h-1a1 1 0 100 2h1v6H47a7 7 0 000 14h11v8h-1a1 1 0 100 2h1v2H7.15A5.16 5.16 0 012 52.73v-2.2c.23-.25.34-.6.24-.96A6 6 0 012 47.88V20.53c.23-.25.34-.6.24-.96l-.04-.2a8.02 8.02 0 003 2l.33.12c.15.05.31.1.47.13l.32.09c.18.04.37.06.55.09l.28.04c.28.03.56.05.85.05h50v2zm-1.06-4l-8-8H49a1 1 0 100-2h-2l-.05.01-2-2H58v12h-1.06z"/><path d="M55 9.88h-2a1 1 0 100 2h2a1 1 0 100-2z"/></svg>