<svg xmlns="http://www.w3.org/2000/svg" viewBox="0 0 504.16 504.16"><path d="M344.13 268.87a8.4 8.4 0 00-8.4 8.39V478.7a8.4 8.4 0 01-8.39 8.4H25.18a8.4 8.4 0 01-8.4-8.4V25.46a8.4 8.4 0 018.4-8.4h302.16a8.4 8.4 0 018.4 8.4v50.36a8.4 8.4 0 1016.78 0V25.46A25.18 25.18 0 00327.34.28H25.18A25.18 25.18 0 000 25.46V478.7a25.18 25.18 0 0025.18 25.18h302.16a25.18 25.18 0 0025.18-25.18V277.26a8.4 8.4 0 00-8.39-8.4z"/><path d="M491.87 28.8a41.97 41.97 0 00-59.22-.14h.02L377.4 83.9 88.43 372.9c-.08.07-.1.18-.18.26-.67.69-1.2 1.49-1.6 2.36l-.06.15-35.55 82.94a8.4 8.4 0 0011.02 11.02L145 434.1l.14-.07a8.13 8.13 0 002.37-1.6c.07-.07.18-.1.26-.18l288.98-288.96L492 88a41.97 41.97 0 00-.13-59.22zM74.7 445.96l22.46-52.41 29.95 29.95-52.4 22.46zm67.15-31.54l-35.61-35.6 277.1-277.1 35.61 35.6-277.1 277.1zm288.97-288.97l-35.6-35.6 13.7-13.72 35.61 35.61-13.71 13.7zm49.33-49.28h-.04l-23.75 23.74-35.57-35.65 23.74-23.7a25.18 25.18 0 0135.62 35.6zM276.98 75.82H75.54a8.4 8.4 0 100 16.78h201.44a8.4 8.4 0 100-16.78zM285.38 134.57a8.4 8.4 0 00-8.4-8.4H75.54a8.4 8.4 0 100 16.8h201.44a8.4 8.4 0 008.4-8.4zM75.54 176.54a8.4 8.4 0 100 16.78h151.08a8.4 8.4 0 100-16.78H75.54z"/></svg>