<svg xmlns="http://www.w3.org/2000/svg" viewBox="0 0 540 120"><path d="M32.66 62.88L18.03 95.73H7.36L23.42 60.6c-7.55-3.84-12.59-10.8-12.59-23.62C10.83 18.99 22.23 10 35.77 10h13.8v85.73h-9.24V62.88h-7.67zm7.67-45.09h-4.92c-7.43 0-14.62 4.92-14.62 19.19 0 13.79 6.59 18.22 14.62 18.22h4.92V17.8z" fill="red"/><path d="M94.06 35.3v60.43h-9.23v-27.1H70.92v27.1h-9.35V35.3h9.35v25.66h13.9V35.3h9.24zm48.08 72.3h-8.4V95.73h-25.9v11.87h-8.38V88.06h3.71c5.52-12.83 6.12-31.54 6.12-47.6V35.3h28.05v52.76h4.8v19.54zm-14.03-64.75h-10.43v1.08c0 12.71-.6 31.3-5.63 44.13h16.06v-45.2zm39.81 53.72c-12.47 0-20.14-9.95-20.14-28.53 0-19.43 5.4-33.58 18.22-33.58 10.07 0 16.67 7.55 16.67 28.06v5.15h-25.18c0 13.67 3.83 20.87 11.27 20.87 5.27 0 9.47-2.4 11.87-4.08l2.16 7.2c-3.84 3-8.88 4.91-14.87 4.91zM157.61 60h15.47c0-10.31-1.68-17.87-7.08-17.87-5.75 0-7.8 7.08-8.4 17.87zm44 5.63v30.1h-9.35V35.3h9.35v27.94l14.51-27.94h9.47l-14.98 28.42 17.14 32.01h-10.19l-15.95-30.1zm27.34-.11c0-18.95 7.32-31.06 21.46-31.06 5.4 0 8.52 1.44 11.16 3.12l-1.32 8.87c-2.52-2.16-6.12-4.2-9.96-4.2-6.71 0-11.5 7.56-11.5 22.79 0 15.1 3.59 23.74 11.14 23.74 4.56 0 8.04-1.8 10.2-3.72l2.15 6.95a18.3 18.3 0 01-12.59 4.56c-12.95 0-20.74-10.43-20.74-31.05zM325.88 95.73H289.2l-.84 14.27h-4.67V90.82h2.52c4.2-3.48 6.23-13.07 7.43-25.3 1.2-12.71 1.56-31.66 1.92-55.52h29.97v80.82h5.88V110h-4.68l-.84-14.27zm-6.35-80.81h-18.59c-.36 21.7-.96 38.24-1.91 50.6-1.08 12.82-3 21.34-6.24 25.3h26.74v-75.9zM356.23 92.01c8.03 0 12.23-6.47 12.23-6.47l1.8 4.55s-4.56 6.84-14.15 6.84c-12.83 0-18.7-11.63-18.7-31.41 0-19.79 7.43-31.42 17.62-31.42 10.43 0 17.15 10.91 15.23 32.38h-27.34c.24 16.54 4.56 25.53 13.31 25.53zm-13.19-29.97h21.95c.95-16.07-3.84-23.26-9.96-23.26-6.35 0-11.51 8.15-11.99 23.26zM407.2 66.6h-20.63v29.13h-5.63V35.3h5.63v26.74h20.63V35.3h5.63v60.43h-5.63V66.6zM426.16 35.3h5.63v22.42h4.44c11.5 0 18.94 6.24 18.94 18.83 0 12.83-7.91 19.18-19.3 19.18h-9.71V35.3zm5.63 26.86v29.13h3.6c8.5 0 14.26-4.19 14.26-14.62 0-10.2-5.03-14.51-13.67-14.51h-4.2zM470.4 39.98v55.75h-5.51V35.3h25.54v4.68H470.4zM527.25 53.65c0-3.12.24-5.76.48-8.28h-.36a53.58 53.58 0 01-3.24 7.8l-19.66 42.56h-4.8V35.3h5.28v41.97c0 3.23-.25 5.87-.48 8.5h.36c.83-2.75 2.03-5.39 3.23-8.02l19.67-42.45h4.91v60.43h-5.4V53.65z"/></svg>